<mxfile host="app.diagrams.net" agent="Mozilla/5.0 (Windows NT 10.0; Win64; x64) AppleWebKit/537.36 (KHTML, like Gecko) Chrome/127.0.0.0 Safari/537.36 OPR/113.0.0.0" version="24.7.17">
  <diagram name="PÃ¡gina-1" id="sKuQcLdLyPzWn0vI1AE5">
    <mxGraphModel dx="801" dy="2863" grid="1" gridSize="10" guides="1" tooltips="1" connect="1" arrows="1" fold="1" page="1" pageScale="1" pageWidth="827" pageHeight="1169" math="0" shadow="0">
      <root>
        <mxCell id="0" />
        <mxCell id="1" parent="0" />
        <mxCell id="8MxUGp5JQtOr7JU15H_O-122" value="" style="verticalLabelPosition=bottom;html=1;verticalAlign=top;align=center;shape=mxgraph.floorplan.chair;direction=south;" vertex="1" parent="1">
          <mxGeometry x="290" y="-2040" width="52" height="41" as="geometry" />
        </mxCell>
        <mxCell id="8MxUGp5JQtOr7JU15H_O-123" value="" style="verticalLabelPosition=bottom;html=1;verticalAlign=top;align=center;shape=mxgraph.floorplan.chair;direction=west;" vertex="1" parent="1">
          <mxGeometry x="220" y="-1987" width="41" height="52" as="geometry" />
        </mxCell>
        <mxCell id="8MxUGp5JQtOr7JU15H_O-120" value="" style="verticalLabelPosition=bottom;html=1;verticalAlign=top;align=center;shape=mxgraph.floorplan.chair;direction=east;" vertex="1" parent="1">
          <mxGeometry x="224.5" y="-2100" width="41" height="52" as="geometry" />
        </mxCell>
        <mxCell id="8MxUGp5JQtOr7JU15H_O-62" value="" style="verticalLabelPosition=bottom;html=1;verticalAlign=top;align=center;shape=mxgraph.floorplan.chair;direction=east;" vertex="1" parent="1">
          <mxGeometry x="555.5" y="-2110" width="41" height="52" as="geometry" />
        </mxCell>
        <mxCell id="8MxUGp5JQtOr7JU15H_O-63" value="" style="verticalLabelPosition=bottom;html=1;verticalAlign=top;align=center;shape=mxgraph.floorplan.chair;direction=north;" vertex="1" parent="1">
          <mxGeometry x="480" y="-2040" width="52" height="41" as="geometry" />
        </mxCell>
        <mxCell id="8MxUGp5JQtOr7JU15H_O-61" value="" style="verticalLabelPosition=bottom;html=1;verticalAlign=top;align=center;shape=mxgraph.floorplan.chair;direction=west;" vertex="1" parent="1">
          <mxGeometry x="555.5" y="-1980" width="41" height="52" as="geometry" />
        </mxCell>
        <mxCell id="8MxUGp5JQtOr7JU15H_O-59" value="" style="verticalLabelPosition=bottom;html=1;verticalAlign=top;align=center;shape=mxgraph.floorplan.chair;direction=east;" vertex="1" parent="1">
          <mxGeometry x="550.5" y="-1876" width="41" height="52" as="geometry" />
        </mxCell>
        <mxCell id="8MxUGp5JQtOr7JU15H_O-60" value="" style="verticalLabelPosition=bottom;html=1;verticalAlign=top;align=center;shape=mxgraph.floorplan.chair;direction=west;" vertex="1" parent="1">
          <mxGeometry x="555" y="-1750" width="41" height="52" as="geometry" />
        </mxCell>
        <mxCell id="8MxUGp5JQtOr7JU15H_O-58" value="" style="verticalLabelPosition=bottom;html=1;verticalAlign=top;align=center;shape=mxgraph.floorplan.chair;direction=north;" vertex="1" parent="1">
          <mxGeometry x="488" y="-1810.5" width="52" height="41" as="geometry" />
        </mxCell>
        <mxCell id="8MxUGp5JQtOr7JU15H_O-57" value="" style="verticalLabelPosition=bottom;html=1;verticalAlign=top;align=center;shape=mxgraph.floorplan.chair;direction=west;" vertex="1" parent="1">
          <mxGeometry x="223.5" y="-1790" width="41" height="52" as="geometry" />
        </mxCell>
        <mxCell id="8MxUGp5JQtOr7JU15H_O-56" value="" style="verticalLabelPosition=bottom;html=1;verticalAlign=top;align=center;shape=mxgraph.floorplan.chair;direction=south;" vertex="1" parent="1">
          <mxGeometry x="270" y="-1840.5" width="52" height="41" as="geometry" />
        </mxCell>
        <mxCell id="8MxUGp5JQtOr7JU15H_O-55" value="" style="verticalLabelPosition=bottom;html=1;verticalAlign=top;align=center;shape=mxgraph.floorplan.chair;" vertex="1" parent="1">
          <mxGeometry x="224" y="-1902.5" width="41" height="52" as="geometry" />
        </mxCell>
        <mxCell id="8MxUGp5JQtOr7JU15H_O-39" value="" style="verticalLabelPosition=bottom;html=1;verticalAlign=top;align=center;shape=mxgraph.floorplan.room;fillColor=strokeColor;" vertex="1" parent="1">
          <mxGeometry x="140" y="-2280" width="540" height="720" as="geometry" />
        </mxCell>
        <mxCell id="8MxUGp5JQtOr7JU15H_O-52" value="" style="verticalLabelPosition=bottom;html=1;verticalAlign=top;align=center;shape=mxgraph.floorplan.office_chair;shadow=0;" vertex="1" parent="1">
          <mxGeometry x="540" y="-2240" width="40" height="43" as="geometry" />
        </mxCell>
        <mxCell id="8MxUGp5JQtOr7JU15H_O-54" value="" style="shape=rect;shadow=0;html=1;" vertex="1" parent="1">
          <mxGeometry x="480" y="-2220" width="160" height="80" as="geometry" />
        </mxCell>
        <mxCell id="8MxUGp5JQtOr7JU15H_O-96" value="" style="ellipse;whiteSpace=wrap;html=1;aspect=fixed;" vertex="1" parent="1">
          <mxGeometry x="190" y="-1870" width="120" height="120" as="geometry" />
        </mxCell>
        <mxCell id="8MxUGp5JQtOr7JU15H_O-158" style="edgeStyle=orthogonalEdgeStyle;rounded=0;orthogonalLoop=1;jettySize=auto;html=1;exitX=0.5;exitY=0.9;exitDx=0;exitDy=0;exitPerimeter=0;entryX=0.5;entryY=0;entryDx=0;entryDy=0;" edge="1" parent="1" source="8MxUGp5JQtOr7JU15H_O-101" target="8MxUGp5JQtOr7JU15H_O-144">
          <mxGeometry relative="1" as="geometry" />
        </mxCell>
        <mxCell id="8MxUGp5JQtOr7JU15H_O-101" value="" style="shape=mxgraph.cisco.computers_and_peripherals.sun_workstation;sketch=0;html=1;pointerEvents=1;dashed=0;fillColor=#036897;strokeColor=#ffffff;strokeWidth=2;verticalLabelPosition=bottom;verticalAlign=top;align=center;outlineConnect=0;" vertex="1" parent="1">
          <mxGeometry x="224" y="-1870" width="50" height="40" as="geometry" />
        </mxCell>
        <mxCell id="8MxUGp5JQtOr7JU15H_O-156" style="edgeStyle=orthogonalEdgeStyle;rounded=0;orthogonalLoop=1;jettySize=auto;html=1;exitX=0.115;exitY=0.5;exitDx=0;exitDy=0;exitPerimeter=0;entryX=1;entryY=0.5;entryDx=0;entryDy=0;" edge="1" parent="1" source="8MxUGp5JQtOr7JU15H_O-103" target="8MxUGp5JQtOr7JU15H_O-144">
          <mxGeometry relative="1" as="geometry" />
        </mxCell>
        <mxCell id="8MxUGp5JQtOr7JU15H_O-103" value="" style="shape=mxgraph.cisco.computers_and_peripherals.sun_workstation;sketch=0;html=1;pointerEvents=1;dashed=0;fillColor=#036897;strokeColor=#ffffff;strokeWidth=2;verticalLabelPosition=bottom;verticalAlign=top;align=center;outlineConnect=0;" vertex="1" parent="1">
          <mxGeometry x="264.5" y="-1830" width="50" height="40" as="geometry" />
        </mxCell>
        <mxCell id="8MxUGp5JQtOr7JU15H_O-157" style="edgeStyle=orthogonalEdgeStyle;rounded=0;orthogonalLoop=1;jettySize=auto;html=1;exitX=0.5;exitY=0;exitDx=0;exitDy=0;exitPerimeter=0;" edge="1" parent="1" source="8MxUGp5JQtOr7JU15H_O-104">
          <mxGeometry relative="1" as="geometry">
            <mxPoint x="240" y="-1820" as="targetPoint" />
          </mxGeometry>
        </mxCell>
        <mxCell id="8MxUGp5JQtOr7JU15H_O-104" value="" style="shape=mxgraph.cisco.computers_and_peripherals.sun_workstation;sketch=0;html=1;pointerEvents=1;dashed=0;fillColor=#036897;strokeColor=#ffffff;strokeWidth=2;verticalLabelPosition=bottom;verticalAlign=top;align=center;outlineConnect=0;" vertex="1" parent="1">
          <mxGeometry x="224" y="-1790" width="50" height="40" as="geometry" />
        </mxCell>
        <mxCell id="8MxUGp5JQtOr7JU15H_O-105" value="" style="ellipse;whiteSpace=wrap;html=1;aspect=fixed;" vertex="1" parent="1">
          <mxGeometry x="189" y="-2082" width="122" height="122" as="geometry" />
        </mxCell>
        <mxCell id="8MxUGp5JQtOr7JU15H_O-155" style="edgeStyle=orthogonalEdgeStyle;rounded=0;orthogonalLoop=1;jettySize=auto;html=1;exitX=0.5;exitY=0.9;exitDx=0;exitDy=0;exitPerimeter=0;entryX=0.5;entryY=0;entryDx=0;entryDy=0;" edge="1" parent="1" source="8MxUGp5JQtOr7JU15H_O-107" target="8MxUGp5JQtOr7JU15H_O-143">
          <mxGeometry relative="1" as="geometry" />
        </mxCell>
        <mxCell id="8MxUGp5JQtOr7JU15H_O-107" value="" style="shape=mxgraph.cisco.computers_and_peripherals.sun_workstation;sketch=0;html=1;pointerEvents=1;dashed=0;fillColor=#036897;strokeColor=#ffffff;strokeWidth=2;verticalLabelPosition=bottom;verticalAlign=top;align=center;outlineConnect=0;" vertex="1" parent="1">
          <mxGeometry x="224" y="-2081" width="50" height="40" as="geometry" />
        </mxCell>
        <mxCell id="8MxUGp5JQtOr7JU15H_O-154" style="edgeStyle=orthogonalEdgeStyle;rounded=0;orthogonalLoop=1;jettySize=auto;html=1;exitX=0.5;exitY=0;exitDx=0;exitDy=0;exitPerimeter=0;entryX=0.5;entryY=1;entryDx=0;entryDy=0;" edge="1" parent="1" source="8MxUGp5JQtOr7JU15H_O-108" target="8MxUGp5JQtOr7JU15H_O-143">
          <mxGeometry relative="1" as="geometry" />
        </mxCell>
        <mxCell id="8MxUGp5JQtOr7JU15H_O-108" value="" style="shape=mxgraph.cisco.computers_and_peripherals.sun_workstation;sketch=0;html=1;pointerEvents=1;dashed=0;fillColor=#036897;strokeColor=#ffffff;strokeWidth=2;verticalLabelPosition=bottom;verticalAlign=top;align=center;outlineConnect=0;" vertex="1" parent="1">
          <mxGeometry x="225" y="-2000" width="50" height="40" as="geometry" />
        </mxCell>
        <mxCell id="8MxUGp5JQtOr7JU15H_O-152" style="edgeStyle=orthogonalEdgeStyle;rounded=0;orthogonalLoop=1;jettySize=auto;html=1;exitX=0.115;exitY=0.5;exitDx=0;exitDy=0;exitPerimeter=0;entryX=1;entryY=0;entryDx=0;entryDy=0;" edge="1" parent="1" source="8MxUGp5JQtOr7JU15H_O-109" target="8MxUGp5JQtOr7JU15H_O-143">
          <mxGeometry relative="1" as="geometry" />
        </mxCell>
        <mxCell id="8MxUGp5JQtOr7JU15H_O-109" value="" style="shape=mxgraph.cisco.computers_and_peripherals.sun_workstation;sketch=0;html=1;pointerEvents=1;dashed=0;fillColor=#036897;strokeColor=#ffffff;strokeWidth=2;verticalLabelPosition=bottom;verticalAlign=top;align=center;outlineConnect=0;" vertex="1" parent="1">
          <mxGeometry x="270" y="-2040" width="50" height="40" as="geometry" />
        </mxCell>
        <mxCell id="8MxUGp5JQtOr7JU15H_O-111" value="" style="ellipse;whiteSpace=wrap;html=1;aspect=fixed;" vertex="1" parent="1">
          <mxGeometry x="510" y="-2081" width="122" height="122" as="geometry" />
        </mxCell>
        <mxCell id="8MxUGp5JQtOr7JU15H_O-112" value="" style="ellipse;whiteSpace=wrap;html=1;aspect=fixed;" vertex="1" parent="1">
          <mxGeometry x="515" y="-1850.5" width="122" height="122" as="geometry" />
        </mxCell>
        <mxCell id="8MxUGp5JQtOr7JU15H_O-164" style="edgeStyle=orthogonalEdgeStyle;rounded=0;orthogonalLoop=1;jettySize=auto;html=1;exitX=0.5;exitY=0.9;exitDx=0;exitDy=0;exitPerimeter=0;" edge="1" parent="1" source="8MxUGp5JQtOr7JU15H_O-113">
          <mxGeometry relative="1" as="geometry">
            <mxPoint x="575" y="-2020" as="targetPoint" />
          </mxGeometry>
        </mxCell>
        <mxCell id="8MxUGp5JQtOr7JU15H_O-113" value="" style="shape=mxgraph.cisco.computers_and_peripherals.sun_workstation;sketch=0;html=1;pointerEvents=1;dashed=0;fillColor=#036897;strokeColor=#ffffff;strokeWidth=2;verticalLabelPosition=bottom;verticalAlign=top;align=center;outlineConnect=0;" vertex="1" parent="1">
          <mxGeometry x="550.5" y="-2075" width="50" height="40" as="geometry" />
        </mxCell>
        <mxCell id="8MxUGp5JQtOr7JU15H_O-162" style="edgeStyle=orthogonalEdgeStyle;rounded=0;orthogonalLoop=1;jettySize=auto;html=1;exitX=0.5;exitY=0;exitDx=0;exitDy=0;exitPerimeter=0;entryX=1;entryY=1;entryDx=0;entryDy=0;" edge="1" parent="1" source="8MxUGp5JQtOr7JU15H_O-114" target="8MxUGp5JQtOr7JU15H_O-146">
          <mxGeometry relative="1" as="geometry" />
        </mxCell>
        <mxCell id="8MxUGp5JQtOr7JU15H_O-114" value="" style="shape=mxgraph.cisco.computers_and_peripherals.sun_workstation;sketch=0;html=1;pointerEvents=1;dashed=0;fillColor=#036897;strokeColor=#ffffff;strokeWidth=2;verticalLabelPosition=bottom;verticalAlign=top;align=center;outlineConnect=0;" vertex="1" parent="1">
          <mxGeometry x="551" y="-2000" width="50" height="40" as="geometry" />
        </mxCell>
        <mxCell id="8MxUGp5JQtOr7JU15H_O-163" style="edgeStyle=orthogonalEdgeStyle;rounded=0;orthogonalLoop=1;jettySize=auto;html=1;exitX=0.785;exitY=0.5;exitDx=0;exitDy=0;exitPerimeter=0;entryX=0;entryY=1;entryDx=0;entryDy=0;" edge="1" parent="1" source="8MxUGp5JQtOr7JU15H_O-115" target="8MxUGp5JQtOr7JU15H_O-146">
          <mxGeometry relative="1" as="geometry" />
        </mxCell>
        <mxCell id="8MxUGp5JQtOr7JU15H_O-115" value="" style="shape=mxgraph.cisco.computers_and_peripherals.sun_workstation;sketch=0;html=1;pointerEvents=1;dashed=0;fillColor=#036897;strokeColor=#ffffff;strokeWidth=2;verticalLabelPosition=bottom;verticalAlign=top;align=center;outlineConnect=0;" vertex="1" parent="1">
          <mxGeometry x="510" y="-2043.5" width="50" height="40" as="geometry" />
        </mxCell>
        <mxCell id="8MxUGp5JQtOr7JU15H_O-161" style="edgeStyle=orthogonalEdgeStyle;rounded=0;orthogonalLoop=1;jettySize=auto;html=1;exitX=0.5;exitY=0.9;exitDx=0;exitDy=0;exitPerimeter=0;entryX=0.5;entryY=0;entryDx=0;entryDy=0;" edge="1" parent="1" source="8MxUGp5JQtOr7JU15H_O-117" target="8MxUGp5JQtOr7JU15H_O-147">
          <mxGeometry relative="1" as="geometry" />
        </mxCell>
        <mxCell id="8MxUGp5JQtOr7JU15H_O-117" value="" style="shape=mxgraph.cisco.computers_and_peripherals.sun_workstation;sketch=0;html=1;pointerEvents=1;dashed=0;fillColor=#036897;strokeColor=#ffffff;strokeWidth=2;verticalLabelPosition=bottom;verticalAlign=top;align=center;outlineConnect=0;" vertex="1" parent="1">
          <mxGeometry x="546" y="-1850.5" width="50" height="40" as="geometry" />
        </mxCell>
        <mxCell id="8MxUGp5JQtOr7JU15H_O-160" style="edgeStyle=orthogonalEdgeStyle;rounded=0;orthogonalLoop=1;jettySize=auto;html=1;exitX=0.785;exitY=0.5;exitDx=0;exitDy=0;exitPerimeter=0;entryX=0;entryY=1;entryDx=0;entryDy=0;" edge="1" parent="1" source="8MxUGp5JQtOr7JU15H_O-118" target="8MxUGp5JQtOr7JU15H_O-147">
          <mxGeometry relative="1" as="geometry" />
        </mxCell>
        <mxCell id="8MxUGp5JQtOr7JU15H_O-118" value="" style="shape=mxgraph.cisco.computers_and_peripherals.sun_workstation;sketch=0;html=1;pointerEvents=1;dashed=0;fillColor=#036897;strokeColor=#ffffff;strokeWidth=2;verticalLabelPosition=bottom;verticalAlign=top;align=center;outlineConnect=0;" vertex="1" parent="1">
          <mxGeometry x="514.5" y="-1809.5" width="50" height="40" as="geometry" />
        </mxCell>
        <mxCell id="8MxUGp5JQtOr7JU15H_O-159" style="edgeStyle=orthogonalEdgeStyle;rounded=0;orthogonalLoop=1;jettySize=auto;html=1;exitX=0.5;exitY=0;exitDx=0;exitDy=0;exitPerimeter=0;entryX=0.5;entryY=1;entryDx=0;entryDy=0;" edge="1" parent="1" source="8MxUGp5JQtOr7JU15H_O-119" target="8MxUGp5JQtOr7JU15H_O-147">
          <mxGeometry relative="1" as="geometry" />
        </mxCell>
        <mxCell id="8MxUGp5JQtOr7JU15H_O-119" value="" style="shape=mxgraph.cisco.computers_and_peripherals.sun_workstation;sketch=0;html=1;pointerEvents=1;dashed=0;fillColor=#036897;strokeColor=#ffffff;strokeWidth=2;verticalLabelPosition=bottom;verticalAlign=top;align=center;outlineConnect=0;" vertex="1" parent="1">
          <mxGeometry x="555.5" y="-1773" width="50" height="40" as="geometry" />
        </mxCell>
        <mxCell id="8MxUGp5JQtOr7JU15H_O-124" value="" style="image;html=1;image=img/lib/clip_art/computers/Server_Rack_128x128.png" vertex="1" parent="1">
          <mxGeometry x="311" y="-1680" width="80" height="80" as="geometry" />
        </mxCell>
        <mxCell id="8MxUGp5JQtOr7JU15H_O-125" value="" style="image;html=1;image=img/lib/clip_art/computers/Server_Rack_128x128.png" vertex="1" parent="1">
          <mxGeometry x="420" y="-1680" width="80" height="80" as="geometry" />
        </mxCell>
        <mxCell id="8MxUGp5JQtOr7JU15H_O-126" value="" style="image;html=1;image=img/lib/clip_art/computers/Server_Rack_128x128.png" vertex="1" parent="1">
          <mxGeometry x="245" y="-1680" width="80" height="80" as="geometry" />
        </mxCell>
        <mxCell id="8MxUGp5JQtOr7JU15H_O-127" value="" style="verticalLabelPosition=bottom;verticalAlign=top;html=1;shape=mxgraph.basic.patternFillRect;fillStyle=diagGrid;step=5;fillStrokeWidth=0.2;fillStrokeColor=#dddddd;direction=south;" vertex="1" parent="1">
          <mxGeometry x="390" y="-2270" width="34" height="700" as="geometry" />
        </mxCell>
        <mxCell id="8MxUGp5JQtOr7JU15H_O-128" value="" style="endArrow=none;dashed=1;html=1;rounded=0;entryX=0;entryY=0.75;entryDx=0;entryDy=0;entryPerimeter=0;exitX=1;exitY=0.75;exitDx=0;exitDy=0;exitPerimeter=0;fillColor=#ffe6cc;strokeColor=#FA9696;curved=0;" edge="1" parent="1" source="8MxUGp5JQtOr7JU15H_O-127" target="8MxUGp5JQtOr7JU15H_O-127">
          <mxGeometry width="50" height="50" relative="1" as="geometry">
            <mxPoint x="390" y="-1610" as="sourcePoint" />
            <mxPoint x="440" y="-1660" as="targetPoint" />
          </mxGeometry>
        </mxCell>
        <mxCell id="8MxUGp5JQtOr7JU15H_O-129" value="" style="endArrow=none;dashed=1;html=1;dashPattern=1 3;strokeWidth=2;rounded=1;exitX=1;exitY=0.5;exitDx=0;exitDy=0;exitPerimeter=0;entryX=0;entryY=0.5;entryDx=0;entryDy=0;entryPerimeter=0;curved=0;fillColor=#dae8fc;strokeColor=#8DBAFA;" edge="1" parent="1" source="8MxUGp5JQtOr7JU15H_O-127" target="8MxUGp5JQtOr7JU15H_O-127">
          <mxGeometry width="50" height="50" relative="1" as="geometry">
            <mxPoint x="410" y="-1590" as="sourcePoint" />
            <mxPoint x="460" y="-1640" as="targetPoint" />
          </mxGeometry>
        </mxCell>
        <mxCell id="8MxUGp5JQtOr7JU15H_O-130" value="" style="endArrow=none;html=1;rounded=0;exitX=1;exitY=0.25;exitDx=0;exitDy=0;exitPerimeter=0;entryX=0.008;entryY=0.241;entryDx=0;entryDy=0;entryPerimeter=0;" edge="1" parent="1" source="8MxUGp5JQtOr7JU15H_O-127" target="8MxUGp5JQtOr7JU15H_O-127">
          <mxGeometry width="50" height="50" relative="1" as="geometry">
            <mxPoint x="410" y="-1650" as="sourcePoint" />
            <mxPoint x="460" y="-1700" as="targetPoint" />
          </mxGeometry>
        </mxCell>
        <mxCell id="8MxUGp5JQtOr7JU15H_O-136" value="" style="rounded=1;whiteSpace=wrap;html=1;direction=south;" vertex="1" parent="1">
          <mxGeometry x="150" y="-2110" width="20" height="520" as="geometry" />
        </mxCell>
        <mxCell id="8MxUGp5JQtOr7JU15H_O-137" value="" style="rounded=1;whiteSpace=wrap;html=1;" vertex="1" parent="1">
          <mxGeometry x="150" y="-1590" width="230" height="20" as="geometry" />
        </mxCell>
        <mxCell id="8MxUGp5JQtOr7JU15H_O-139" value="" style="rounded=1;whiteSpace=wrap;html=1;" vertex="1" parent="1">
          <mxGeometry x="431" y="-1590" width="239" height="20" as="geometry" />
        </mxCell>
        <mxCell id="8MxUGp5JQtOr7JU15H_O-140" value="" style="rounded=1;whiteSpace=wrap;html=1;direction=south;" vertex="1" parent="1">
          <mxGeometry x="650" y="-2090" width="20" height="500" as="geometry" />
        </mxCell>
        <mxCell id="8MxUGp5JQtOr7JU15H_O-143" value="" style="ellipse;whiteSpace=wrap;html=1;aspect=fixed;fillColor=#000000;strokeColor=#36393d;" vertex="1" parent="1">
          <mxGeometry x="237.5" y="-2032.5" width="23" height="23" as="geometry" />
        </mxCell>
        <mxCell id="8MxUGp5JQtOr7JU15H_O-144" value="" style="ellipse;whiteSpace=wrap;html=1;aspect=fixed;fillColor=#000000;strokeColor=#36393d;" vertex="1" parent="1">
          <mxGeometry x="233.5" y="-1824" width="23" height="23" as="geometry" />
        </mxCell>
        <mxCell id="8MxUGp5JQtOr7JU15H_O-146" value="" style="ellipse;whiteSpace=wrap;html=1;aspect=fixed;fillColor=#000000;strokeColor=#36393d;" vertex="1" parent="1">
          <mxGeometry x="559.5" y="-2032.5" width="23" height="23" as="geometry" />
        </mxCell>
        <mxCell id="8MxUGp5JQtOr7JU15H_O-147" value="" style="ellipse;whiteSpace=wrap;html=1;aspect=fixed;fillColor=#000000;strokeColor=#36393d;" vertex="1" parent="1">
          <mxGeometry x="564" y="-1801.5" width="23" height="23" as="geometry" />
        </mxCell>
        <mxCell id="8MxUGp5JQtOr7JU15H_O-148" value="" style="endArrow=none;dashed=1;html=1;dashPattern=1 3;strokeWidth=2;rounded=0;exitX=0.192;exitY=0;exitDx=0;exitDy=0;exitPerimeter=0;fillColor=#1ba1e2;strokeColor=#92C0FC;" edge="1" parent="1" source="8MxUGp5JQtOr7JU15H_O-136" target="8MxUGp5JQtOr7JU15H_O-143">
          <mxGeometry width="50" height="50" relative="1" as="geometry">
            <mxPoint x="200" y="-1980" as="sourcePoint" />
            <mxPoint x="250" y="-2030" as="targetPoint" />
          </mxGeometry>
        </mxCell>
        <mxCell id="8MxUGp5JQtOr7JU15H_O-149" value="" style="endArrow=none;dashed=1;html=1;dashPattern=1 3;strokeWidth=2;rounded=0;exitX=1;exitY=0.5;exitDx=0;exitDy=0;fillColor=#1ba1e2;strokeColor=#92C0FC;" edge="1" parent="1" source="8MxUGp5JQtOr7JU15H_O-136">
          <mxGeometry width="50" height="50" relative="1" as="geometry">
            <mxPoint x="130" y="-1926" as="sourcePoint" />
            <mxPoint x="160" y="-2010" as="targetPoint" />
          </mxGeometry>
        </mxCell>
        <mxCell id="8MxUGp5JQtOr7JU15H_O-150" value="" style="endArrow=none;dashed=1;html=1;dashPattern=1 3;strokeWidth=2;rounded=0;fillColor=#1ba1e2;strokeColor=#92C0FC;entryX=1;entryY=0.5;entryDx=0;entryDy=0;" edge="1" parent="1" target="8MxUGp5JQtOr7JU15H_O-137">
          <mxGeometry width="50" height="50" relative="1" as="geometry">
            <mxPoint x="160" y="-1580" as="sourcePoint" />
            <mxPoint x="233.5" y="-1584.5" as="targetPoint" />
          </mxGeometry>
        </mxCell>
        <mxCell id="8MxUGp5JQtOr7JU15H_O-151" value="" style="endArrow=none;dashed=1;html=1;dashPattern=1 3;strokeWidth=2;rounded=0;exitX=0.192;exitY=0;exitDx=0;exitDy=0;exitPerimeter=0;fillColor=#1ba1e2;strokeColor=#92C0FC;" edge="1" parent="1">
          <mxGeometry width="50" height="50" relative="1" as="geometry">
            <mxPoint x="170" y="-1805.5" as="sourcePoint" />
            <mxPoint x="238" y="-1814.5" as="targetPoint" />
          </mxGeometry>
        </mxCell>
        <mxCell id="8MxUGp5JQtOr7JU15H_O-171" value="" style="endArrow=none;dashed=1;html=1;dashPattern=1 3;strokeWidth=2;rounded=0;exitX=1;exitY=0.5;exitDx=0;exitDy=0;fillColor=#1ba1e2;strokeColor=#92C0FC;" edge="1" parent="1">
          <mxGeometry width="50" height="50" relative="1" as="geometry">
            <mxPoint x="659.3299999999999" y="-1589.5" as="sourcePoint" />
            <mxPoint x="659.3299999999999" y="-2009.5" as="targetPoint" />
          </mxGeometry>
        </mxCell>
        <mxCell id="8MxUGp5JQtOr7JU15H_O-172" value="" style="endArrow=none;dashed=1;html=1;dashPattern=1 3;strokeWidth=2;rounded=0;fillColor=#1ba1e2;strokeColor=#92C0FC;" edge="1" parent="1">
          <mxGeometry width="50" height="50" relative="1" as="geometry">
            <mxPoint x="590" y="-2020" as="sourcePoint" />
            <mxPoint x="659.5" y="-2018.5" as="targetPoint" />
          </mxGeometry>
        </mxCell>
        <mxCell id="8MxUGp5JQtOr7JU15H_O-173" value="" style="endArrow=none;dashed=1;html=1;dashPattern=1 3;strokeWidth=2;rounded=0;fillColor=#1ba1e2;strokeColor=#92C0FC;" edge="1" parent="1">
          <mxGeometry width="50" height="50" relative="1" as="geometry">
            <mxPoint x="431" y="-1580.67" as="sourcePoint" />
            <mxPoint x="660" y="-1581" as="targetPoint" />
          </mxGeometry>
        </mxCell>
      </root>
    </mxGraphModel>
  </diagram>
</mxfile>
